<svg xmlns="http://www.w3.org/2000/svg" xmlns:xlink="http://www.w3.org/1999/xlink" viewBox="0 0 50 76.25" version="1.1" x="0px" y="0px"><title>031-North Point Arrow</title><desc>Created with Sketch.</desc><g stroke="none" stroke-width="1" fill="none" fill-rule="evenodd"><g fill="#000000"><path d="M41.946,50.699 L40.516,49.269 C43.702,45.766 45.713,41.196 45.95,36.157 C45.967,36.158 45.982,36.167 46,36.167 L47.975,36.167 C47.734,41.756 45.492,46.833 41.946,50.699 L41.946,50.699 Z M25,58.167 C19.018,58.167 13.563,55.87 9.468,52.113 L10.898,50.683 C14.63,54.077 19.569,56.167 25,56.167 C30.43,56.167 35.37,54.077 39.102,50.683 L40.532,52.113 C36.437,55.87 30.982,58.167 25,58.167 L25,58.167 Z M2.025,36.167 L4,36.167 C4.018,36.167 4.033,36.158 4.05,36.157 C4.287,41.196 6.298,45.766 9.484,49.269 L8.054,50.699 C4.508,46.833 2.266,41.756 2.025,36.167 L2.025,36.167 Z M8.054,19.635 L9.484,21.065 C6.298,24.568 4.287,29.138 4.05,34.177 C4.033,34.176 4.018,34.167 4,34.167 L2.025,34.167 C2.266,28.578 4.508,23.501 8.054,19.635 L8.054,19.635 Z M24,12.192 L24,14.167 C24,14.185 24.009,14.2 24.01,14.217 C18.971,14.454 14.401,16.465 10.898,19.651 L9.468,18.221 C13.334,14.675 18.411,12.433 24,12.192 L24,12.192 Z M27.015,32.341 C27.017,32.35 27.023,32.357 27.024,32.366 C27.034,32.414 27.057,32.454 27.074,32.499 C27.1,32.572 27.125,32.644 27.166,32.707 C27.192,32.747 27.226,32.778 27.257,32.814 C27.306,32.87 27.356,32.924 27.416,32.968 C27.456,32.997 27.498,33.017 27.542,33.04 C27.61,33.076 27.679,33.104 27.754,33.123 C27.779,33.13 27.799,33.147 27.826,33.152 L42,35.167 L27.826,37.182 C27.816,37.184 27.809,37.191 27.8,37.192 C27.734,37.206 27.677,37.239 27.616,37.265 C27.556,37.29 27.493,37.307 27.441,37.343 C27.393,37.375 27.359,37.422 27.317,37.462 C27.267,37.51 27.212,37.553 27.173,37.61 C27.143,37.656 27.129,37.711 27.106,37.761 C27.075,37.829 27.04,37.895 27.024,37.97 C27.023,37.978 27.017,37.985 27.015,37.993 L25,52.167 L22.985,37.993 C22.983,37.985 22.977,37.978 22.976,37.97 C22.96,37.893 22.924,37.826 22.891,37.756 C22.869,37.708 22.856,37.654 22.827,37.611 C22.787,37.552 22.732,37.509 22.681,37.46 C22.639,37.42 22.606,37.374 22.559,37.342 C22.509,37.308 22.448,37.292 22.392,37.268 C22.328,37.24 22.268,37.206 22.198,37.192 C22.189,37.19 22.183,37.184 22.174,37.182 L8,35.167 L22.174,33.152 C22.201,33.147 22.221,33.13 22.246,33.123 C22.321,33.104 22.39,33.076 22.457,33.041 C22.501,33.017 22.544,32.997 22.584,32.968 C22.644,32.924 22.694,32.87 22.744,32.814 C22.774,32.778 22.808,32.747 22.834,32.708 C22.875,32.644 22.9,32.572 22.927,32.499 C22.943,32.454 22.966,32.413 22.976,32.366 C22.977,32.357 22.983,32.35 22.985,32.341 L25,18.167 L27.015,32.341 Z M26,14.167 L26,12.192 C31.589,12.433 36.666,14.675 40.532,18.221 L39.102,19.651 C35.599,16.465 31.029,14.454 25.99,14.217 C25.991,14.2 26,14.185 26,14.167 L26,14.167 Z M47.975,34.167 L46,34.167 C45.982,34.167 45.967,34.176 45.95,34.177 C45.713,29.138 43.702,24.568 40.516,21.065 L41.946,19.635 C45.492,23.501 47.734,28.578 47.975,34.167 L47.975,34.167 Z M25,10.167 C11.215,10.167 0,21.382 0,35.167 C0,48.952 11.215,60.167 25,60.167 C38.785,60.167 50,48.952 50,35.167 C50,21.382 38.785,10.167 25,10.167 L25,10.167 Z"/><path d="M26,7.167 C26,6.615 26.448,6.167 27,6.167 L29,6.167 L25,0.167 L21,6.167 L23,6.167 C23.552,6.167 24,6.615 24,7.167 L24,10.167 L25,10.167 L26,10.167 L26,7.167 Z"/></g></g><text x="0" y="76" fill="#000000" font-size="5px" font-weight="bold" font-family="'Helvetica Neue', Helvetica, Arial-Unicode, Arial, Sans-serif">Created by Creaticca Creative Agency</text><text x="0" y="81" fill="#000000" font-size="5px" font-weight="bold" font-family="'Helvetica Neue', Helvetica, Arial-Unicode, Arial, Sans-serif">from the Noun Project</text></svg>